<svg width="720" height="800" viewBox="0 0 720 800" xmlns="http://www.w3.org/2000/svg" role="img" font-family="-apple-system, BlinkMacSystemFont, 'Segoe UI', sans-serif">
<title>WatchlessAI Architecture</title>
<desc>Two entry points: camera source (left) and user question (right). Frames flow through a vision call into shared storage. Three agents (teal) each run their own tool loop: alert engine, chat agent, and validation agent.</desc>

<rect width="720" height="800" fill="#0e0f12"/>

<text x="200" y="28" text-anchor="middle" font-size="11" fill="#555b6a" letter-spacing="0.08em" font-weight="600">INGESTION</text>
<text x="520" y="28" text-anchor="middle" font-size="11" fill="#555b6a" letter-spacing="0.08em" font-weight="600">QUERY</text>

<defs>
<marker id="arr" viewBox="0 0 12 12" refX="9" refY="6" markerWidth="9" markerHeight="9" orient="auto-start-reverse">
  <path d="M2 2L9 6L2 10" fill="none" stroke="#4a5060" stroke-width="2" stroke-linecap="round" stroke-linejoin="round"/>
</marker>
</defs>

<line x1="200" y1="108" x2="200" y2="178" stroke="#4a5060" stroke-width="2.5" marker-end="url(#arr)"/>
<line x1="240" y1="234" x2="316" y2="286" stroke="#4a5060" stroke-width="2.5" marker-end="url(#arr)"/>
<line x1="520" y1="108" x2="520" y2="420" stroke="#4a5060" stroke-width="2.5" marker-end="url(#arr)"/>
<line x1="320" y1="342" x2="220" y2="420" stroke="#4a5060" stroke-width="2.5" marker-end="url(#arr)"/>
<line x1="400" y1="342" x2="460" y2="420" stroke="#4a5060" stroke-width="2.5" marker-end="url(#arr)"/>
<line x1="240" y1="476" x2="300" y2="540" stroke="#4a5060" stroke-width="2.5" marker-end="url(#arr)"/>
<line x1="460" y1="476" x2="400" y2="540" stroke="#4a5060" stroke-width="2.5" marker-end="url(#arr)"/>
<line x1="300" y1="596" x2="210" y2="666" stroke="#4a5060" stroke-width="2.5" marker-end="url(#arr)"/>
<line x1="420" y1="596" x2="510" y2="666" stroke="#4a5060" stroke-width="2.5" marker-end="url(#arr)"/>

<rect x="100" y="48" width="200" height="60" rx="10" fill="#1a1c22" stroke="#3a3d47" stroke-width="1.5"/>
<text x="200" y="73" text-anchor="middle" font-size="15" font-weight="600" fill="#e8e9ec">Camera source</text>
<text x="200" y="93" text-anchor="middle" font-size="12" fill="#7a7f8e">RTSP stream or uploaded file</text>

<rect x="420" y="48" width="200" height="60" rx="10" fill="#1a1c22" stroke="#3a3d47" stroke-width="1.5"/>
<text x="520" y="73" text-anchor="middle" font-size="15" font-weight="600" fill="#e8e9ec">User question</text>
<text x="520" y="93" text-anchor="middle" font-size="12" fill="#7a7f8e">typed in Ask tab</text>

<rect x="100" y="178" width="200" height="56" rx="10" fill="#1a1c22" stroke="#3a3d47" stroke-width="1.5"/>
<text x="200" y="203" text-anchor="middle" font-size="15" font-weight="600" fill="#e8e9ec">Vision call</text>
<text x="200" y="222" text-anchor="middle" font-size="12" fill="#7a7f8e">one fixed step, not an agent</text>

<rect x="260" y="286" width="200" height="56" rx="10" fill="#1a1c22" stroke="#3a3d47" stroke-width="1.5"/>
<text x="360" y="311" text-anchor="middle" font-size="15" font-weight="600" fill="#e8e9ec">Storage</text>
<text x="360" y="330" text-anchor="middle" font-size="12" fill="#7a7f8e">SQLite + saved frames</text>

<rect x="100" y="420" width="200" height="56" rx="10" fill="#072e24" stroke="#1db87a" stroke-width="2"/>
<text x="200" y="445" text-anchor="middle" font-size="15" font-weight="600" fill="#5ef0b0">Alert engine</text>
<text x="200" y="464" text-anchor="middle" font-size="12" fill="#3cbb88">decides for itself</text>

<rect x="420" y="420" width="200" height="56" rx="10" fill="#072e24" stroke="#1db87a" stroke-width="2"/>
<text x="520" y="445" text-anchor="middle" font-size="15" font-weight="600" fill="#5ef0b0">Chat agent</text>
<text x="520" y="464" text-anchor="middle" font-size="12" fill="#3cbb88">decides what to search</text>

<rect x="260" y="540" width="200" height="56" rx="10" fill="#072e24" stroke="#1db87a" stroke-width="2"/>
<text x="360" y="565" text-anchor="middle" font-size="15" font-weight="600" fill="#5ef0b0">Validation agent</text>
<text x="360" y="584" text-anchor="middle" font-size="12" fill="#3cbb88">double-checks independently</text>

<rect x="100" y="666" width="200" height="56" rx="10" fill="#1a1c22" stroke="#3a3d47" stroke-width="1.5"/>
<text x="200" y="691" text-anchor="middle" font-size="15" font-weight="600" fill="#e8e9ec">Alert event stored</text>
<text x="200" y="710" text-anchor="middle" font-size="12" fill="#7a7f8e">appears in Alerts tab</text>

<rect x="420" y="666" width="200" height="56" rx="10" fill="#1a1c22" stroke="#3a3d47" stroke-width="1.5"/>
<text x="520" y="691" text-anchor="middle" font-size="15" font-weight="600" fill="#e8e9ec">Answer shown</text>
<text x="520" y="710" text-anchor="middle" font-size="12" fill="#7a7f8e">rendered in chat</text>

<rect x="220" y="758" width="16" height="16" rx="4" fill="#072e24" stroke="#1db87a" stroke-width="2"/>
<text x="244" y="770" dominant-baseline="central" font-size="13" fill="#9a9da4">agent — calls tools, decides its own next step</text>
</svg>
